<svg width="416" height="409" viewBox="0 0 416 409" fill="none" xmlns="http://www.w3.org/2000/svg">
<path d="M251.359 149.538C266.347 161.355 276.155 178.479 278.625 197.144C281.095 215.808 276.026 234.484 264.531 249.063C253.037 263.642 236.06 272.93 217.334 274.883C198.608 276.836 179.668 271.295 164.68 259.478C149.692 247.661 139.884 230.537 137.414 211.872C134.943 193.208 140.013 174.532 151.507 159.953C163.002 145.374 179.979 136.086 198.705 134.133C217.431 132.18 236.371 137.721 251.359 149.538ZM100.064 94.689C95.4553 99.2056 91.0085 103.85 86.9222 109.032C82.8359 114.215 79.234 119.78 75.6698 125.629L21.4173 124.369C16.4921 124.306 12.3415 127.91 11.5548 132.893L1.00331 212.695C0.216674 217.678 3.46175 222.528 8.12838 223.916L60.7153 239.908C64.2821 252.653 68.791 264.867 75.8675 276.813L49.0275 323.143C47.897 325.252 47.5653 327.71 48.091 330.082C48.6168 332.455 49.9661 334.588 51.8999 336.105L116.485 387.025C120.522 390.208 126.141 390.054 129.759 386.794L168.547 349.884C181.815 353.977 194.744 355.511 207.97 356.006L235.791 403.409C238.229 407.624 243.703 409.647 248.365 407.72L323.501 378.838C328.324 377.038 330.699 372.033 329.489 367.259L315.604 314.798C320.46 309.967 325.03 305.166 329.117 299.983C333.203 294.801 336.681 289.393 339.998 283.858L394.622 284.647C399.547 284.71 403.859 281.233 404.484 276.123L415.036 196.321C415.822 191.338 412.453 186.644 407.91 185.1L355.2 169.265C351.757 156.363 347.248 144.149 340.171 132.203L367.011 85.8725C369.337 81.5939 368.175 76.0936 364.139 72.9111L299.554 21.9908C295.517 18.8083 289.898 18.962 286.28 22.2222L247.492 59.1321C234.1 55.1957 221.295 53.5043 207.945 53.1669L180.248 5.60636C177.686 1.54929 172.336 -0.631383 167.674 1.29626L92.5376 30.1778C87.8759 32.1055 85.3398 36.9825 86.5502 41.7571L100.064 94.689Z" fill="#E9C332"/>
</svg>
